PathFileType	4	(x/y/z)	S04_M20_T03.trc
DataRate	CameraRate	NumFrames	NumMarkers	Units	OrigDataRate	OrigDataStartFrame	OrigNumFrames
240	240	9	51	mm	240	1	565
Frame#	Time	Sternum			R.Acromium			L.Acromium			Top.Head			R.ASIS			L.ASIS			R.PSIS			L.PSIS			R.Great.Tro			L.Great.Tro			R.Iliac.Crest			L.Iliac.Crest			V.Sacral			R.Thigh.Upper.Post			R.Thigh.Lower.Ant			R.Thigh.Lower.Post			R.Thigh.Upper.Ant			R.Knee.Lat			R.Knee.Med			R.Shank.Upper.Post			R.Shank.Lower.Ant			R.Shank.Lower.Post			R.Shank.Upper.Ant			R.Ankle.Lat			R.Ankle.Med			R.Heel.Upper			R.Heel.Med			R.Heel.Lat			R.Toe.Lat			R.Toe.Med			R.Toe.Tip			L.Thigh.Upper.Post			L.Thigh.Lower.Ant			L.Thigh.Lower.Post			L.Thigh.Upper.Ant			L.Knee.Lat			L.Knee.Med			L.Shank.Upper.Post			L.Shank.Lower.Ant			L.Shank.Lower.Post			L.Shank.Upper.Ant			L.Ankle.Lat			L.Ankle.Med			L.Heel.Upper			L.Heel.Med			L.Heel.Lat			L.Toe.Lat			L.Toe.Med			L.Toe.Tip			Cervical.Spine			Back			
		X1	Y1	Z1	X2	Y2	Z2	X3	Y3	Z3	X4	Y4	Z4	X5	Y5	Z5	X6	Y6	Z6	X7	Y7	Z7	X8	Y8	Z8	X9	Y9	Z9	X10	Y10	Z10	X11	Y11	Z11	X12	Y12	Z12	X13	Y13	Z13	X14	Y14	Z14	X15	Y15	Z15	X16	Y16	Z16	X17	Y17	Z17	X18	Y18	Z18	X19	Y19	Z19	X20	Y20	Z20	X21	Y21	Z21	X22	Y22	Z22	X23	Y23	Z23	X24	Y24	Z24	X25	Y25	Z25	X26	Y26	Z26	X27	Y27	Z27	X28	Y28	Z28	X29	Y29	Z29	X30	Y30	Z30	X31	Y31	Z31	X32	Y32	Z32	X33	Y33	Z33	X34	Y34	Z34	X35	Y35	Z35	X36	Y36	Z36	X37	Y37	Z37	X38	Y38	Z38	X39	Y39	Z39	X40	Y40	Z40	X41	Y41	Z41	X42	Y42	Z42	X43	Y43	Z43	X44	Y44	Z44	X45	Y45	Z45	X46	Y46	Z46	X47	Y47	Z47	X48	Y48	Z48	X49	Y49	Z49	X50	Y50	Z50	X51	Y51	Z51	

1	0	-916.8	1256.2	299.77	-1045.5	1481.6	478.13	-1048.5	1475.1	126.96	-1050.7	1808.4	293.21	-968.87	970.65	445.4	-931.51	986.96	193.98	NaN	NaN	NaN	-1146.1	1018.4	232.78	-1077.6	901.18	491.62	-1036.5	904.71	110.87	-1061.3	1065.1	476.33	-1031.3	1070.3	131.51	-1183.3	978.82	272.27	-1143.9	654.98	463.58	-1090	556.71	431.11	-1165.2	567.94	449	-1055.1	660.02	457.48	-1164	495.87	437.99	-1180.6	501.29	301.81	-1293.6	294.62	413.25	-1245.1	205.26	371.46	-1308	228.59	393.53	-1232.6	272.3	400.53	-1322.8	114.45	366.72	-1305.1	130.38	280.11	-1392.8	90.79	309.77	-1384	57.734	281.29	-1393.4	61.146	344.88	-1223.6	40.418	399.34	-1184.5	38.093	280.27	-1121.1	48.044	330.55	-963.15	665.79	122.43	-848.3	614.35	126.75	-916.5	590.53	137.67	-899.77	686.95	108.36	-839.02	526.23	143.75	-824.36	519.64	272.12	-842.96	329.02	151.79	-743.16	281.08	145.12	-804.02	261.84	157.78	-781.38	347.28	137.84	-683.83	133.04	162.03	-682.88	148.97	253.82	-735.05	67.245	213.56	-716.21	52.234	247.27	-717.93	45.126	186.69	-556.24	127.38	141.84	-532.31	158.76	253.44	-491.62	195.22	203.76	-1094.7	1530.1	307.87	-1182.3	1276.3	280.83
2	0.0041667	-911.95	1255.3	299.49	-1040.6	1480.8	477.62	-1043.6	1474.1	126.52	-1045.8	1807.5	292.54	-964.45	969.81	445.41	-926.67	985.88	193.95	-1160	1017.4	311.44	-1141.1	1017.7	232.29	-1073.5	900.58	491.41	-1031.4	903.73	110.73	-1056.8	1064.4	476.08	-1026.3	1069.3	131.26	-1177.7	977.91	271.8	-1140.6	654.71	463.47	-1086.9	556.26	431.21	-1162.1	567.77	448.88	-1051.7	659.42	457.56	-1161.3	495.64	437.94	-1177.5	501.06	301.72	-1292	295.08	413.33	-1244	205.48	371.44	-1306.7	229.19	393.46	-1231.1	272.42	400.48	-1322.2	115.08	366.7	-1304.3	130.9	280.08	-1392.3	91.775	309.75	-1383.7	58.713	281.25	-1393.2	62.161	344.85	-1223.5	40.477	399.32	-1184.3	38.107	280.28	-1121	47.647	330.46	-958.75	664.73	122.5	-843.95	613.12	126.97	-912.21	589.4	137.85	-895.3	685.77	108.42	-834.63	525.21	143.87	-820.13	518.64	272.37	-836.7	327.88	152.14	-736.18	281.25	145.14	-796.61	261.33	157.87	-775.19	346.96	137.92	-675.06	133.94	162.06	-673.98	150.07	253.9	-725.28	67.606	213.98	-706.05	52.882	247.65	-708.02	45.645	187.01	-547.54	129.87	141.32	-523.59	161.75	252.71	-483.67	198.51	202.66	-1089.9	1529.3	307.35	-1177.3	1275.4	280.46
3	0.0083333	-906.89	1254.3	299.2	-1035.6	1479.9	477.1	-1038.5	1473.1	126.05	-1040.6	1806.6	291.84	-959.83	968.95	445.41	-921.61	984.77	193.92	-1155.1	1016.7	310.91	-1135.9	1017	231.78	-1069.1	899.95	491.19	-1026.1	902.71	110.58	-1052.1	1063.6	475.81	-1021	1068.3	131	-1171.9	976.96	271.3	-1137.1	654.42	463.35	-1083.7	555.8	431.3	-1158.9	567.59	448.76	-1048.2	658.79	457.64	-1158.4	495.41	437.89	-1174.3	500.82	301.62	-1290.3	295.57	413.41	-1242.9	205.72	371.42	-1305.4	229.83	393.4	-1229.5	272.54	400.45	-1321.6	115.74	366.69	-1303.5	131.44	280.06	-1391.8	92.821	309.74	-1383.5	59.755	281.21	-1393	63.243	344.83	-1223.4	40.54	399.31	-1184.2	38.123	280.29	-1120.8	47.248	330.36	-954.12	663.64	122.56	-839.37	611.87	127.19	-907.68	588.25	138.03	-890.61	684.57	108.48	-830.01	524.16	144	-815.67	517.61	272.63	-830.23	326.71	152.52	-728.99	281.39	145.16	-788.99	260.8	157.98	-768.79	346.61	137.99	-666.08	134.81	162.1	-664.86	151.14	253.99	-715.28	67.935	214.41	-695.65	53.503	248.05	-697.88	46.132	187.35	-538.64	132.36	140.79	-514.65	164.73	251.96	-475.52	201.8	201.54	-1084.9	1528.5	306.81	-1172	1274.5	280.08
4	0.0125	-901.64	1253.3	298.9	-1030.3	1479.1	476.57	-1033.2	1472.1	125.56	-1035.3	1805.7	291.12	-955.04	968.07	445.41	-916.36	983.63	193.9	-1150.1	1016	310.36	-1130.6	1016.2	231.25	-1064.6	899.3	490.95	-1020.7	901.67	110.42	-1047.3	1062.8	475.53	-1015.6	1067.2	130.73	-1166	975.99	270.79	-1133.5	654.13	463.23	-1080.4	555.32	431.39	-1155.5	567.41	448.64	-1044.5	658.15	457.71	-1155.3	495.16	437.85	-1171	500.56	301.53	-1288.6	296.09	413.49	-1241.6	205.98	371.41	-1304.1	230.5	393.34	-1227.8	272.68	400.41	-1320.9	116.46	366.69	-1302.6	132.03	280.04	-1391.3	93.927	309.74	-1383.2	60.86	281.19	-1392.8	64.393	344.82	-1223.2	40.608	399.29	-1184	38.141	280.3	-1120.7	46.853	330.28	-949.28	662.53	122.61	-834.58	610.62	127.43	-902.94	587.09	138.21	-885.69	683.37	108.55	-825.18	523.1	144.12	-811.01	516.57	272.89	-823.62	325.51	152.92	-721.63	281.49	145.18	-781.23	260.25	158.11	-762.21	346.22	138.06	-656.99	135.64	162.15	-655.61	152.17	254.08	-705.17	68.217	214.85	-685.13	54.078	248.45	-687.62	46.569	187.7	-529.63	134.78	140.25	-505.59	167.66	251.21	-467.25	205.03	200.42	-1079.6	1527.7	306.25	-1166.5	1273.6	279.69
5	0.016667	-896.24	1252.4	298.58	-1024.9	1478.2	476.02	-1027.7	1471	125.05	-1029.8	1804.8	290.39	-950.1	967.18	445.4	-910.95	982.48	193.88	-1144.8	1015.2	309.8	-1125.1	1015.4	230.71	-1059.9	898.64	490.71	-1015	900.61	110.25	-1042.3	1062	475.24	-1010	1066.1	130.45	-1160	975.01	270.25	-1129.7	653.82	463.1	-1076.9	554.82	431.48	-1152	567.21	448.51	-1040.7	657.5	457.79	-1152.2	494.91	437.8	-1167.5	500.29	301.44	-1286.7	296.64	413.57	-1240.4	206.25	371.39	-1302.6	231.2	393.28	-1226.1	272.82	400.38	-1320.2	117.22	366.7	-1301.8	132.65	280.03	-1390.8	95.091	309.76	-1382.9	62.027	281.17	-1392.6	65.609	344.83	-1223.1	40.679	399.28	-1183.9	38.163	280.31	-1120.6	46.468	330.19	-944.24	661.42	122.65	-829.59	609.37	127.67	-897.99	585.92	138.37	-880.59	682.17	108.63	-820.16	522.03	144.24	-806.15	515.52	273.14	-816.9	324.3	153.34	-714.17	281.55	145.21	-773.39	259.67	158.24	-755.51	345.81	138.14	-647.86	136.39	162.21	-646.32	153.13	254.18	-695.04	68.438	215.29	-674.6	54.589	248.85	-677.35	46.94	188.05	-520.61	137.11	139.7	-496.5	170.47	250.47	-458.93	208.15	199.32	-1074.3	1526.8	305.67	-1160.9	1272.6	279.28
6	0.020833	-890.72	1251.3	298.25	-1019.3	1477.3	475.46	-1022.2	1469.9	124.52	-1024.2	1803.9	289.63	-945.03	966.27	445.39	-905.41	981.33	193.87	-1139.5	1014.4	309.22	-1119.5	1014.6	230.16	-1055.2	897.97	490.46	-1009.2	899.55	110.08	-1037.2	1061.2	474.93	-1004.3	1065	130.16	-1153.8	974.02	269.71	-1125.8	653.51	462.96	-1073.3	554.31	431.56	-1148.4	567	448.37	-1036.7	656.84	457.87	-1148.9	494.65	437.75	-1164	500	301.36	-1284.8	297.22	413.65	-1239	206.54	371.39	-1301.1	231.93	393.24	-1224.2	272.98	400.36	-1319.5	118.03	366.73	-1300.8	133.31	280.03	-1390.3	96.313	309.79	-1382.6	63.257	281.17	-1392.5	66.892	344.85	-1222.9	40.756	399.28	-1183.7	38.187	280.33	-1120.5	46.096	330.12	-939.02	660.31	122.69	-824.41	608.15	127.91	-892.85	584.77	138.53	-875.3	680.99	108.72	-814.95	520.97	144.35	-801.11	514.47	273.39	-810.13	323.09	153.76	-706.68	281.55	145.24	-765.54	259.06	158.39	-748.73	345.36	138.22	-638.8	137.06	162.28	-637.08	153.99	254.29	-685.01	68.583	215.75	-664.16	55.019	249.26	-667.16	47.229	188.42	-511.66	139.28	139.17	-487.45	173.11	249.74	-450.66	211.1	198.24	-1068.7	1525.9	305.07	-1155	1271.6	278.87
7	0.025	-885.09	1250.3	297.9	-1013.7	1476.5	474.89	-1016.5	1468.8	123.98	-1018.5	1802.9	288.87	-939.86	965.37	445.37	-899.75	980.18	193.87	-1134	1013.6	308.64	-1113.8	1013.7	229.61	-1050.3	897.3	490.19	-1003.4	898.48	109.89	-1031.9	1060.4	474.62	-998.53	1063.9	129.86	-1147.7	973.03	269.15	-1121.7	653.18	462.82	-1069.6	553.8	431.64	-1144.7	566.79	448.23	-1032.7	656.18	457.94	-1145.5	494.39	437.71	-1160.3	499.71	301.27	-1282.8	297.84	413.72	-1237.6	206.84	371.39	-1299.6	232.7	393.21	-1222.3	273.14	400.34	-1318.7	118.88	366.76	-1299.9	134.01	280.04	-1389.7	97.594	309.85	-1382.2	64.551	281.18	-1392.3	68.24	344.89	-1222.7	40.836	399.28	-1183.6	38.215	280.34	-1120.3	45.74	330.05	-933.63	659.22	122.71	-819.06	606.96	128.16	-887.53	583.64	138.67	-869.84	679.84	108.82	-809.59	519.93	144.46	-795.91	513.44	273.62	-803.32	321.89	154.19	-699.19	281.48	145.27	-757.75	258.43	158.55	-741.91	344.88	138.29	-629.87	137.61	162.36	-627.98	154.74	254.41	-675.15	68.64	216.2	-653.91	55.348	249.67	-657.16	47.42	188.78	-502.86	141.28	138.65	-478.54	175.55	249.05	-442.48	213.84	197.21	-1063.1	1525	304.46	-1149.1	1270.6	278.45
8	0.029167	-879.38	1249.3	297.54	-1007.9	1475.6	474.31	-1010.7	1467.7	123.43	-1012.7	1802	288.09	-934.59	964.47	445.35	-894	979.03	193.87	-1128.3	1012.7	308.04	-1108	1012.9	229.05	-1045.3	896.62	489.92	-997.39	897.41	109.69	-1026.6	1059.5	474.29	-992.65	1062.8	129.56	-1141.5	972.03	268.59	-1117.6	652.86	462.67	-1065.8	553.28	431.71	-1140.9	566.56	448.09	-1028.5	655.51	458	-1142	494.12	437.66	-1156.4	499.4	301.19	-1280.7	298.48	413.8	-1236.2	207.17	371.39	-1298	233.49	393.19	-1220.4	273.32	400.34	-1317.9	119.77	366.81	-1299	134.75	280.07	-1389.1	98.934	309.93	-1381.9	65.908	281.2	-1392.1	69.654	344.96	-1222.5	40.922	399.28	-1183.4	38.246	280.36	-1120.2	45.4	329.98	-928.08	658.15	122.72	-813.54	605.83	128.41	-882.03	582.54	138.79	-864.23	678.73	108.92	-804.06	518.92	144.56	-790.55	512.42	273.84	-796.52	320.73	154.6	-691.77	281.33	145.32	-750.04	257.78	158.72	-735.08	344.36	138.37	-621.15	138.03	162.47	-619.07	155.34	254.54	-665.55	68.596	216.65	-643.94	55.56	250.07	-647.43	47.497	189.15	-494.27	143.04	138.16	-469.81	177.73	248.39	-434.47	216.3	196.24	-1057.4	1524.1	303.84	-1143	1269.5	278.02
9	0.033333	-873.6	1248.3	297.17	-1002.1	1474.7	473.73	-1004.9	1466.6	122.86	-1006.9	1801.1	287.3	-929.25	963.57	445.31	-888.17	977.91	193.87	-1122.7	1011.9	307.45	-1102.1	1012	228.49	-1040.2	895.93	489.64	-991.34	896.35	109.48	-1021.3	1058.7	473.95	-986.71	1061.6	129.25	-1135.3	971.04	268.01	-1113.4	652.52	462.52	-1061.9	552.76	431.77	-1136.9	566.33	447.93	-1024.2	654.84	458.06	-1138.4	493.85	437.62	-1152.5	499.07	301.12	-1278.5	299.15	413.87	-1234.7	207.51	371.41	-1296.3	234.31	393.18	-1218.3	273.51	400.35	-1317.1	120.71	366.88	-1298	135.52	280.1	-1388.4	100.33	310.03	-1381.5	67.332	281.24	-1391.9	71.133	345.04	-1222.4	41.012	399.29	-1183.2	38.281	280.39	-1120	45.079	329.92	-922.38	657.11	122.72	-807.86	604.74	128.66	-876.38	581.48	138.9	-858.47	677.68	109.04	-798.39	517.94	144.66	-785.04	511.44	274.05	-789.75	319.6	154.98	-684.44	281.1	145.38	-742.48	257.11	158.9	-728.28	343.8	138.45	-612.69	138.31	162.59	-610.43	155.78	254.69	-656.28	68.439	217.1	-634.31	55.64	250.47	-638.03	47.448	189.52	-485.96	144.56	137.71	-461.34	179.61	247.78	-426.66	218.46	195.34	-1051.6	1523.2	303.21	-1136.8	1268.5	277.59
